<mxfile host="app.diagrams.net" modified="2021-03-25T06:20:11.124Z" agent="5.0 (Windows NT 10.0; Win64; x64) AppleWebKit/537.36 (KHTML, like Gecko) Chrome/87.0.4280.66 Safari/537.36" etag="eCmMslN5e1ZXMXLGK7CF" version="14.5.1" type="github">
  <diagram id="waXFQ8dzQsIIY04ZReRM" name="Page-1">
    <mxGraphModel dx="1406" dy="726" grid="1" gridSize="10" guides="1" tooltips="1" connect="1" arrows="1" fold="1" page="1" pageScale="1" pageWidth="850" pageHeight="1100" math="0" shadow="0">
      <root>
        <mxCell id="0" />
        <mxCell id="1" parent="0" />
        <mxCell id="mpBOs6Y1X-cj8bdfCXrv-73" style="edgeStyle=orthogonalEdgeStyle;rounded=0;orthogonalLoop=1;jettySize=auto;html=1;entryX=0.5;entryY=0;entryDx=0;entryDy=0;" edge="1" parent="1" source="mpBOs6Y1X-cj8bdfCXrv-2" target="mpBOs6Y1X-cj8bdfCXrv-3">
          <mxGeometry relative="1" as="geometry" />
        </mxCell>
        <mxCell id="mpBOs6Y1X-cj8bdfCXrv-74" style="edgeStyle=orthogonalEdgeStyle;rounded=0;orthogonalLoop=1;jettySize=auto;html=1;exitX=0.5;exitY=1;exitDx=0;exitDy=0;entryX=0.5;entryY=0;entryDx=0;entryDy=0;" edge="1" parent="1" source="mpBOs6Y1X-cj8bdfCXrv-2" target="mpBOs6Y1X-cj8bdfCXrv-4">
          <mxGeometry relative="1" as="geometry" />
        </mxCell>
        <mxCell id="mpBOs6Y1X-cj8bdfCXrv-75" style="edgeStyle=orthogonalEdgeStyle;rounded=0;orthogonalLoop=1;jettySize=auto;html=1;exitX=0.5;exitY=1;exitDx=0;exitDy=0;" edge="1" parent="1" source="mpBOs6Y1X-cj8bdfCXrv-2" target="mpBOs6Y1X-cj8bdfCXrv-5">
          <mxGeometry relative="1" as="geometry" />
        </mxCell>
        <mxCell id="mpBOs6Y1X-cj8bdfCXrv-76" style="edgeStyle=orthogonalEdgeStyle;rounded=0;orthogonalLoop=1;jettySize=auto;html=1;exitX=0.5;exitY=1;exitDx=0;exitDy=0;" edge="1" parent="1" source="mpBOs6Y1X-cj8bdfCXrv-2" target="mpBOs6Y1X-cj8bdfCXrv-6">
          <mxGeometry relative="1" as="geometry" />
        </mxCell>
        <mxCell id="mpBOs6Y1X-cj8bdfCXrv-77" style="edgeStyle=orthogonalEdgeStyle;rounded=0;orthogonalLoop=1;jettySize=auto;html=1;entryX=0.5;entryY=0;entryDx=0;entryDy=0;" edge="1" parent="1" source="mpBOs6Y1X-cj8bdfCXrv-2" target="mpBOs6Y1X-cj8bdfCXrv-19">
          <mxGeometry relative="1" as="geometry" />
        </mxCell>
        <mxCell id="mpBOs6Y1X-cj8bdfCXrv-2" value="Equipments" style="shape=process;whiteSpace=wrap;html=1;backgroundOutline=1;" vertex="1" parent="1">
          <mxGeometry x="290" y="50" width="120" height="60" as="geometry" />
        </mxCell>
        <mxCell id="mpBOs6Y1X-cj8bdfCXrv-3" value="Cost" style="rounded=1;whiteSpace=wrap;html=1;" vertex="1" parent="1">
          <mxGeometry x="10" y="240" width="120" height="60" as="geometry" />
        </mxCell>
        <mxCell id="mpBOs6Y1X-cj8bdfCXrv-4" value="Image" style="rounded=1;whiteSpace=wrap;html=1;" vertex="1" parent="1">
          <mxGeometry x="160" y="230" width="120" height="60" as="geometry" />
        </mxCell>
        <mxCell id="mpBOs6Y1X-cj8bdfCXrv-5" value="Name" style="rounded=1;whiteSpace=wrap;html=1;" vertex="1" parent="1">
          <mxGeometry x="300" y="230" width="120" height="60" as="geometry" />
        </mxCell>
        <mxCell id="mpBOs6Y1X-cj8bdfCXrv-6" value="Equipment ID" style="rounded=1;whiteSpace=wrap;html=1;" vertex="1" parent="1">
          <mxGeometry x="430" y="240" width="120" height="60" as="geometry" />
        </mxCell>
        <mxCell id="mpBOs6Y1X-cj8bdfCXrv-7" value="...Rest" style="rounded=1;whiteSpace=wrap;html=1;" vertex="1" parent="1">
          <mxGeometry x="690" y="310" width="120" height="60" as="geometry" />
        </mxCell>
        <mxCell id="mpBOs6Y1X-cj8bdfCXrv-8" value="" style="endArrow=none;html=1;" edge="1" parent="1">
          <mxGeometry width="50" height="50" relative="1" as="geometry">
            <mxPoint x="10" y="400" as="sourcePoint" />
            <mxPoint x="830" y="400" as="targetPoint" />
          </mxGeometry>
        </mxCell>
        <mxCell id="mpBOs6Y1X-cj8bdfCXrv-9" value="Example equipments&lt;br&gt;" style="text;html=1;align=center;verticalAlign=middle;resizable=0;points=[];autosize=1;" vertex="1" parent="1">
          <mxGeometry x="10" y="420" width="130" height="20" as="geometry" />
        </mxCell>
        <mxCell id="mpBOs6Y1X-cj8bdfCXrv-10" value="Dumbbells" style="shape=hexagon;perimeter=hexagonPerimeter2;whiteSpace=wrap;html=1;fixedSize=1;" vertex="1" parent="1">
          <mxGeometry x="30" y="480" width="120" height="80" as="geometry" />
        </mxCell>
        <mxCell id="mpBOs6Y1X-cj8bdfCXrv-16" style="edgeStyle=orthogonalEdgeStyle;rounded=0;orthogonalLoop=1;jettySize=auto;html=1;entryX=0;entryY=0.5;entryDx=0;entryDy=0;" edge="1" parent="1" source="mpBOs6Y1X-cj8bdfCXrv-11" target="mpBOs6Y1X-cj8bdfCXrv-14">
          <mxGeometry relative="1" as="geometry" />
        </mxCell>
        <mxCell id="mpBOs6Y1X-cj8bdfCXrv-17" style="edgeStyle=orthogonalEdgeStyle;rounded=0;orthogonalLoop=1;jettySize=auto;html=1;exitX=1;exitY=0.5;exitDx=0;exitDy=0;entryX=0;entryY=0.5;entryDx=0;entryDy=0;" edge="1" parent="1" source="mpBOs6Y1X-cj8bdfCXrv-11" target="mpBOs6Y1X-cj8bdfCXrv-15">
          <mxGeometry relative="1" as="geometry" />
        </mxCell>
        <mxCell id="mpBOs6Y1X-cj8bdfCXrv-11" value="Body weights" style="shape=hexagon;perimeter=hexagonPerimeter2;whiteSpace=wrap;html=1;fixedSize=1;" vertex="1" parent="1">
          <mxGeometry x="30" y="600" width="120" height="80" as="geometry" />
        </mxCell>
        <mxCell id="mpBOs6Y1X-cj8bdfCXrv-14" value="Ankle Weights" style="rounded=0;whiteSpace=wrap;html=1;" vertex="1" parent="1">
          <mxGeometry x="200" y="580" width="120" height="60" as="geometry" />
        </mxCell>
        <mxCell id="mpBOs6Y1X-cj8bdfCXrv-15" value="Weight vests" style="rounded=0;whiteSpace=wrap;html=1;" vertex="1" parent="1">
          <mxGeometry x="200" y="660" width="120" height="60" as="geometry" />
        </mxCell>
        <mxCell id="mpBOs6Y1X-cj8bdfCXrv-18" value="Yoga Mats" style="shape=hexagon;perimeter=hexagonPerimeter2;whiteSpace=wrap;html=1;fixedSize=1;" vertex="1" parent="1">
          <mxGeometry x="190" y="480" width="120" height="80" as="geometry" />
        </mxCell>
        <mxCell id="mpBOs6Y1X-cj8bdfCXrv-20" style="edgeStyle=orthogonalEdgeStyle;rounded=0;orthogonalLoop=1;jettySize=auto;html=1;entryX=0;entryY=0.5;entryDx=0;entryDy=0;" edge="1" parent="1" source="mpBOs6Y1X-cj8bdfCXrv-19" target="mpBOs6Y1X-cj8bdfCXrv-7">
          <mxGeometry relative="1" as="geometry">
            <Array as="points">
              <mxPoint x="620" y="340" />
            </Array>
          </mxGeometry>
        </mxCell>
        <mxCell id="mpBOs6Y1X-cj8bdfCXrv-19" value="Equipment Type" style="rounded=1;whiteSpace=wrap;html=1;" vertex="1" parent="1">
          <mxGeometry x="560" y="240" width="120" height="60" as="geometry" />
        </mxCell>
        <mxCell id="mpBOs6Y1X-cj8bdfCXrv-24" value="" style="endArrow=none;html=1;" edge="1" parent="1">
          <mxGeometry width="50" height="50" relative="1" as="geometry">
            <mxPoint x="890" y="400" as="sourcePoint" />
            <mxPoint x="890" y="10" as="targetPoint" />
          </mxGeometry>
        </mxCell>
        <mxCell id="mpBOs6Y1X-cj8bdfCXrv-65" style="edgeStyle=orthogonalEdgeStyle;rounded=0;orthogonalLoop=1;jettySize=auto;html=1;" edge="1" parent="1" source="mpBOs6Y1X-cj8bdfCXrv-25" target="mpBOs6Y1X-cj8bdfCXrv-33">
          <mxGeometry relative="1" as="geometry" />
        </mxCell>
        <mxCell id="mpBOs6Y1X-cj8bdfCXrv-66" style="edgeStyle=orthogonalEdgeStyle;rounded=0;orthogonalLoop=1;jettySize=auto;html=1;entryX=0.5;entryY=0;entryDx=0;entryDy=0;" edge="1" parent="1" source="mpBOs6Y1X-cj8bdfCXrv-25" target="mpBOs6Y1X-cj8bdfCXrv-26">
          <mxGeometry relative="1" as="geometry" />
        </mxCell>
        <mxCell id="mpBOs6Y1X-cj8bdfCXrv-67" style="edgeStyle=orthogonalEdgeStyle;rounded=0;orthogonalLoop=1;jettySize=auto;html=1;exitX=0.5;exitY=1;exitDx=0;exitDy=0;entryX=0.5;entryY=0;entryDx=0;entryDy=0;" edge="1" parent="1" source="mpBOs6Y1X-cj8bdfCXrv-25" target="mpBOs6Y1X-cj8bdfCXrv-29">
          <mxGeometry relative="1" as="geometry" />
        </mxCell>
        <mxCell id="mpBOs6Y1X-cj8bdfCXrv-68" style="edgeStyle=orthogonalEdgeStyle;rounded=0;orthogonalLoop=1;jettySize=auto;html=1;entryX=0.5;entryY=0;entryDx=0;entryDy=0;" edge="1" parent="1" source="mpBOs6Y1X-cj8bdfCXrv-25" target="mpBOs6Y1X-cj8bdfCXrv-32">
          <mxGeometry relative="1" as="geometry" />
        </mxCell>
        <mxCell id="mpBOs6Y1X-cj8bdfCXrv-25" value="User" style="shape=process;whiteSpace=wrap;html=1;backgroundOutline=1;" vertex="1" parent="1">
          <mxGeometry x="1210" y="30" width="120" height="60" as="geometry" />
        </mxCell>
        <mxCell id="mpBOs6Y1X-cj8bdfCXrv-26" value="Name" style="rounded=1;whiteSpace=wrap;html=1;" vertex="1" parent="1">
          <mxGeometry x="1130" y="240" width="120" height="60" as="geometry" />
        </mxCell>
        <mxCell id="mpBOs6Y1X-cj8bdfCXrv-29" value="Email" style="rounded=1;whiteSpace=wrap;html=1;" vertex="1" parent="1">
          <mxGeometry x="1270" y="240" width="120" height="60" as="geometry" />
        </mxCell>
        <mxCell id="mpBOs6Y1X-cj8bdfCXrv-31" value="Health Issues" style="shape=trapezoid;perimeter=trapezoidPerimeter;whiteSpace=wrap;html=1;fixedSize=1;" vertex="1" parent="1">
          <mxGeometry x="1120" y="320" width="120" height="60" as="geometry" />
        </mxCell>
        <mxCell id="mpBOs6Y1X-cj8bdfCXrv-32" value="Address" style="rounded=1;whiteSpace=wrap;html=1;" vertex="1" parent="1">
          <mxGeometry x="1410" y="240" width="120" height="60" as="geometry" />
        </mxCell>
        <mxCell id="mpBOs6Y1X-cj8bdfCXrv-33" value="User_id" style="rounded=1;whiteSpace=wrap;html=1;" vertex="1" parent="1">
          <mxGeometry x="990" y="240" width="120" height="60" as="geometry" />
        </mxCell>
        <mxCell id="mpBOs6Y1X-cj8bdfCXrv-35" value="" style="endArrow=none;html=1;" edge="1" parent="1">
          <mxGeometry width="50" height="50" relative="1" as="geometry">
            <mxPoint x="1700" y="470" as="sourcePoint" />
            <mxPoint x="1700" as="targetPoint" />
          </mxGeometry>
        </mxCell>
        <mxCell id="mpBOs6Y1X-cj8bdfCXrv-47" style="edgeStyle=orthogonalEdgeStyle;rounded=0;orthogonalLoop=1;jettySize=auto;html=1;" edge="1" parent="1" source="mpBOs6Y1X-cj8bdfCXrv-41" target="mpBOs6Y1X-cj8bdfCXrv-42">
          <mxGeometry relative="1" as="geometry" />
        </mxCell>
        <mxCell id="mpBOs6Y1X-cj8bdfCXrv-41" value="Past Orders" style="shape=process;whiteSpace=wrap;html=1;backgroundOutline=1;" vertex="1" parent="1">
          <mxGeometry x="1340" y="410" width="120" height="60" as="geometry" />
        </mxCell>
        <mxCell id="mpBOs6Y1X-cj8bdfCXrv-45" style="edgeStyle=orthogonalEdgeStyle;rounded=0;orthogonalLoop=1;jettySize=auto;html=1;exitX=0.5;exitY=1;exitDx=0;exitDy=0;" edge="1" parent="1" source="mpBOs6Y1X-cj8bdfCXrv-42" target="mpBOs6Y1X-cj8bdfCXrv-43">
          <mxGeometry relative="1" as="geometry" />
        </mxCell>
        <mxCell id="mpBOs6Y1X-cj8bdfCXrv-46" style="edgeStyle=orthogonalEdgeStyle;rounded=0;orthogonalLoop=1;jettySize=auto;html=1;exitX=0.5;exitY=1;exitDx=0;exitDy=0;entryX=0.5;entryY=0;entryDx=0;entryDy=0;" edge="1" parent="1" source="mpBOs6Y1X-cj8bdfCXrv-42" target="mpBOs6Y1X-cj8bdfCXrv-44">
          <mxGeometry relative="1" as="geometry">
            <mxPoint x="1470" y="620" as="targetPoint" />
          </mxGeometry>
        </mxCell>
        <mxCell id="mpBOs6Y1X-cj8bdfCXrv-64" style="edgeStyle=orthogonalEdgeStyle;rounded=0;orthogonalLoop=1;jettySize=auto;html=1;exitX=0.5;exitY=1;exitDx=0;exitDy=0;entryX=0.5;entryY=0;entryDx=0;entryDy=0;" edge="1" parent="1" source="mpBOs6Y1X-cj8bdfCXrv-42" target="mpBOs6Y1X-cj8bdfCXrv-63">
          <mxGeometry relative="1" as="geometry" />
        </mxCell>
        <mxCell id="mpBOs6Y1X-cj8bdfCXrv-42" value="Order" style="shape=trapezoid;perimeter=trapezoidPerimeter;whiteSpace=wrap;html=1;fixedSize=1;" vertex="1" parent="1">
          <mxGeometry x="1340" y="520" width="120" height="60" as="geometry" />
        </mxCell>
        <mxCell id="mpBOs6Y1X-cj8bdfCXrv-43" value="Equipment_id" style="rounded=1;whiteSpace=wrap;html=1;" vertex="1" parent="1">
          <mxGeometry x="1240" y="630" width="120" height="60" as="geometry" />
        </mxCell>
        <mxCell id="mpBOs6Y1X-cj8bdfCXrv-44" value="Date + time" style="rounded=1;whiteSpace=wrap;html=1;" vertex="1" parent="1">
          <mxGeometry x="1410" y="630" width="120" height="60" as="geometry" />
        </mxCell>
        <mxCell id="mpBOs6Y1X-cj8bdfCXrv-59" style="edgeStyle=orthogonalEdgeStyle;rounded=0;orthogonalLoop=1;jettySize=auto;html=1;exitX=0.5;exitY=1;exitDx=0;exitDy=0;entryX=0.5;entryY=0;entryDx=0;entryDy=0;" edge="1" parent="1" source="mpBOs6Y1X-cj8bdfCXrv-48" target="mpBOs6Y1X-cj8bdfCXrv-51">
          <mxGeometry relative="1" as="geometry" />
        </mxCell>
        <mxCell id="mpBOs6Y1X-cj8bdfCXrv-60" style="edgeStyle=orthogonalEdgeStyle;rounded=0;orthogonalLoop=1;jettySize=auto;html=1;exitX=0.5;exitY=1;exitDx=0;exitDy=0;entryX=0.5;entryY=0;entryDx=0;entryDy=0;" edge="1" parent="1" source="mpBOs6Y1X-cj8bdfCXrv-48" target="mpBOs6Y1X-cj8bdfCXrv-53">
          <mxGeometry relative="1" as="geometry" />
        </mxCell>
        <mxCell id="mpBOs6Y1X-cj8bdfCXrv-62" style="edgeStyle=orthogonalEdgeStyle;rounded=0;orthogonalLoop=1;jettySize=auto;html=1;exitX=0.5;exitY=1;exitDx=0;exitDy=0;entryX=0.5;entryY=0;entryDx=0;entryDy=0;" edge="1" parent="1" source="mpBOs6Y1X-cj8bdfCXrv-48" target="mpBOs6Y1X-cj8bdfCXrv-61">
          <mxGeometry relative="1" as="geometry" />
        </mxCell>
        <mxCell id="mpBOs6Y1X-cj8bdfCXrv-48" value="Cart" style="shape=process;whiteSpace=wrap;html=1;backgroundOutline=1;" vertex="1" parent="1">
          <mxGeometry x="2040" y="30" width="120" height="60" as="geometry" />
        </mxCell>
        <mxCell id="mpBOs6Y1X-cj8bdfCXrv-49" value="&lt;font size=&quot;1&quot;&gt;{ Address,&lt;br&gt;Date + time,&lt;br&gt;[ ...equipments, equipent.capacity ],&lt;br&gt;}&lt;br&gt;&lt;/font&gt;" style="rounded=0;whiteSpace=wrap;html=1;" vertex="1" parent="1">
          <mxGeometry x="960" y="730" width="650" height="160" as="geometry" />
        </mxCell>
        <mxCell id="mpBOs6Y1X-cj8bdfCXrv-50" value="Order" style="text;html=1;strokeColor=none;fillColor=none;align=center;verticalAlign=middle;whiteSpace=wrap;rounded=0;" vertex="1" parent="1">
          <mxGeometry x="980" y="750" width="40" height="20" as="geometry" />
        </mxCell>
        <mxCell id="mpBOs6Y1X-cj8bdfCXrv-51" value="Address" style="rounded=1;whiteSpace=wrap;html=1;" vertex="1" parent="1">
          <mxGeometry x="1860" y="150" width="120" height="60" as="geometry" />
        </mxCell>
        <mxCell id="mpBOs6Y1X-cj8bdfCXrv-57" style="edgeStyle=orthogonalEdgeStyle;rounded=0;orthogonalLoop=1;jettySize=auto;html=1;exitX=0.5;exitY=1;exitDx=0;exitDy=0;entryX=0.5;entryY=0;entryDx=0;entryDy=0;" edge="1" parent="1" source="mpBOs6Y1X-cj8bdfCXrv-53" target="mpBOs6Y1X-cj8bdfCXrv-54">
          <mxGeometry relative="1" as="geometry" />
        </mxCell>
        <mxCell id="mpBOs6Y1X-cj8bdfCXrv-58" style="edgeStyle=orthogonalEdgeStyle;rounded=0;orthogonalLoop=1;jettySize=auto;html=1;exitX=0.5;exitY=1;exitDx=0;exitDy=0;entryX=0.5;entryY=0;entryDx=0;entryDy=0;" edge="1" parent="1" source="mpBOs6Y1X-cj8bdfCXrv-53" target="mpBOs6Y1X-cj8bdfCXrv-55">
          <mxGeometry relative="1" as="geometry" />
        </mxCell>
        <mxCell id="mpBOs6Y1X-cj8bdfCXrv-53" value="Equipments" style="shape=trapezoid;perimeter=trapezoidPerimeter;whiteSpace=wrap;html=1;fixedSize=1;" vertex="1" parent="1">
          <mxGeometry x="2020" y="150" width="120" height="60" as="geometry" />
        </mxCell>
        <mxCell id="mpBOs6Y1X-cj8bdfCXrv-54" value="equipment_id" style="rounded=1;whiteSpace=wrap;html=1;" vertex="1" parent="1">
          <mxGeometry x="1920" y="260" width="120" height="60" as="geometry" />
        </mxCell>
        <mxCell id="mpBOs6Y1X-cj8bdfCXrv-55" value="capacity" style="rounded=1;whiteSpace=wrap;html=1;" vertex="1" parent="1">
          <mxGeometry x="2065" y="260" width="120" height="60" as="geometry" />
        </mxCell>
        <mxCell id="mpBOs6Y1X-cj8bdfCXrv-61" value="Total Price" style="rounded=1;whiteSpace=wrap;html=1;" vertex="1" parent="1">
          <mxGeometry x="2200" y="150" width="120" height="60" as="geometry" />
        </mxCell>
        <mxCell id="mpBOs6Y1X-cj8bdfCXrv-63" value="Payment Mode" style="rounded=1;whiteSpace=wrap;html=1;" vertex="1" parent="1">
          <mxGeometry x="1560" y="630" width="120" height="60" as="geometry" />
        </mxCell>
        <mxCell id="mpBOs6Y1X-cj8bdfCXrv-69" value="" style="shape=document;whiteSpace=wrap;html=1;boundedLbl=1;" vertex="1" parent="1">
          <mxGeometry x="2065" y="770" width="345" height="230" as="geometry" />
        </mxCell>
        <mxCell id="mpBOs6Y1X-cj8bdfCXrv-70" value="Todo" style="text;html=1;strokeColor=none;fillColor=none;align=center;verticalAlign=middle;whiteSpace=wrap;rounded=0;" vertex="1" parent="1">
          <mxGeometry x="2085" y="780" width="40" height="20" as="geometry" />
        </mxCell>
        <mxCell id="mpBOs6Y1X-cj8bdfCXrv-71" value="1) payment model" style="text;html=1;strokeColor=none;fillColor=none;align=center;verticalAlign=middle;whiteSpace=wrap;rounded=0;" vertex="1" parent="1">
          <mxGeometry x="2105" y="810" width="265" height="20" as="geometry" />
        </mxCell>
        <mxCell id="mpBOs6Y1X-cj8bdfCXrv-72" value="" style="endArrow=none;html=1;" edge="1" parent="1">
          <mxGeometry width="50" height="50" relative="1" as="geometry">
            <mxPoint x="890" y="1070" as="sourcePoint" />
            <mxPoint x="890" y="410" as="targetPoint" />
          </mxGeometry>
        </mxCell>
      </root>
    </mxGraphModel>
  </diagram>
</mxfile>
